<svg xmlns="http://www.w3.org/2000/svg" xmlns:xlink="http://www.w3.org/1999/xlink" width="500" zoomAndPan="magnify" viewBox="0 0 375 374.999991" height="500" preserveAspectRatio="xMidYMid meet" version="1.0"><defs><g/><clipPath id="879180f309"><path d="M 61.664062 143.25 L 99.164062 143.25 L 99.164062 186.75 L 61.664062 186.75 Z M 61.664062 143.25 " clip-rule="nonzero"/></clipPath></defs><path fill="#498536" d="M 73.492188 178.660156 C 73.492188 178.660156 73.390625 178.863281 73.238281 179.164062 C 73.085938 179.464844 72.859375 179.859375 72.644531 180.253906 C 72.589844 180.351562 72.535156 180.449219 72.480469 180.546875 C 72.433594 180.625 72.386719 180.699219 72.34375 180.773438 C 72.453125 180.828125 72.566406 180.882812 72.679688 180.933594 C 72.757812 180.738281 72.839844 180.527344 72.914062 180.3125 C 73.0625 179.898438 73.21875 179.492188 73.324219 179.179688 C 73.425781 178.867188 73.492188 178.660156 73.492188 178.660156 " fill-opacity="1" fill-rule="nonzero"/><g clip-path="url(#879180f309)"><path fill="#498536" d="M 97.289062 165.574219 C 97.289062 165.574219 92.800781 169.480469 89.027344 169.589844 C 89.027344 169.589844 92.109375 166.0625 97.289062 165.574219 Z M 88.460938 168.425781 C 88.417969 168.550781 88.253906 168.621094 88.027344 168.628906 C 88.027344 168.628906 88.042969 168.570312 88.078125 168.476562 C 88.109375 168.378906 88.15625 168.238281 88.214844 168.078125 C 88.335938 167.75 88.496094 167.3125 88.65625 166.875 C 88.734375 166.65625 88.816406 166.4375 88.890625 166.230469 C 88.96875 166.027344 89.042969 165.839844 89.109375 165.675781 C 89.234375 165.351562 89.320312 165.132812 89.320312 165.132812 C 89.320312 165.132812 89.214844 165.347656 89.054688 165.667969 C 88.976562 165.832031 88.878906 166.015625 88.78125 166.21875 C 88.6875 166.425781 88.582031 166.640625 88.480469 166.859375 C 88.273438 167.289062 88.066406 167.722656 87.910156 168.050781 C 87.761719 168.378906 87.660156 168.597656 87.660156 168.597656 C 87.535156 168.574219 87.40625 168.539062 87.269531 168.488281 C 86.695312 168.28125 86.304688 167.917969 86.402344 167.675781 C 86.429688 167.601562 86.5 167.546875 86.597656 167.515625 C 86.601562 167.496094 86.605469 167.480469 86.613281 167.464844 C 86.613281 167.464844 86.792969 167 87.0625 166.300781 C 87.328125 165.601562 87.722656 164.683594 88.109375 163.761719 C 88.203125 163.53125 88.308594 163.304688 88.410156 163.078125 C 88.511719 162.855469 88.609375 162.632812 88.707031 162.421875 C 88.804688 162.207031 88.898438 162 88.984375 161.804688 C 89.03125 161.707031 89.074219 161.613281 89.117188 161.519531 C 89.160156 161.429688 89.203125 161.34375 89.242188 161.257812 C 89.570312 160.582031 89.789062 160.132812 89.789062 160.132812 C 89.773438 160.050781 89.78125 159.972656 89.820312 159.90625 C 89.960938 159.632812 90.480469 159.605469 90.972656 159.84375 C 91.21875 159.964844 91.414062 160.125 91.535156 160.292969 C 91.65625 160.460938 91.703125 160.636719 91.644531 160.773438 C 91.613281 160.84375 91.558594 160.898438 91.484375 160.933594 C 91.484375 160.933594 91.421875 160.824219 91.289062 160.710938 C 91.15625 160.59375 90.957031 160.476562 90.671875 160.464844 C 90.671875 160.464844 90.804688 160.507812 90.964844 160.605469 C 91.128906 160.707031 91.316406 160.855469 91.425781 161.066406 C 91.425781 161.066406 91.222656 161.5 90.917969 162.152344 C 90.765625 162.480469 90.605469 162.867188 90.421875 163.277344 C 90.332031 163.484375 90.238281 163.695312 90.140625 163.914062 C 90.09375 164.019531 90.046875 164.128906 90 164.238281 C 89.953125 164.351562 89.90625 164.460938 89.859375 164.570312 C 89.496094 165.460938 89.121094 166.34375 88.871094 167.019531 C 88.609375 167.6875 88.433594 168.136719 88.433594 168.136719 C 88.429688 168.152344 88.421875 168.167969 88.414062 168.179688 C 88.464844 168.269531 88.484375 168.351562 88.460938 168.425781 Z M 88.171875 169.953125 C 88.148438 170.023438 88.089844 170.078125 88.003906 170.117188 C 88.003906 170.117188 87.898438 170.003906 87.699219 169.886719 C 87.503906 169.769531 87.21875 169.652344 86.855469 169.640625 C 86.855469 169.640625 87.039062 169.6875 87.265625 169.785156 C 87.492188 169.886719 87.765625 170.039062 87.957031 170.253906 C 87.957031 170.253906 87.914062 170.367188 87.847656 170.566406 C 87.78125 170.765625 87.6875 171.046875 87.574219 171.386719 C 87.460938 171.730469 87.324219 172.125 87.1875 172.550781 C 87.054688 172.980469 86.910156 173.4375 86.769531 173.894531 C 86.699219 174.125 86.621094 174.351562 86.554688 174.578125 C 86.492188 174.804688 86.425781 175.027344 86.363281 175.242188 C 86.238281 175.671875 86.117188 176.074219 86.019531 176.417969 C 85.828125 177.113281 85.703125 177.574219 85.703125 177.574219 C 85.699219 177.589844 85.691406 177.605469 85.683594 177.621094 C 85.765625 177.707031 85.804688 177.792969 85.785156 177.867188 C 85.757812 177.996094 85.566406 178.070312 85.285156 178.085938 C 85.285156 178.085938 85.503906 177.183594 85.726562 176.28125 C 85.964844 175.382812 86.203125 174.480469 86.203125 174.480469 C 86.203125 174.480469 85.855469 175.375 85.507812 176.269531 C 85.167969 177.167969 84.828125 178.070312 84.828125 178.070312 C 84.671875 178.050781 84.503906 178.023438 84.332031 177.980469 C 83.585938 177.792969 83.039062 177.4375 83.117188 177.1875 C 83.136719 177.109375 83.214844 177.054688 83.328125 177.015625 C 83.328125 177 83.332031 176.980469 83.335938 176.964844 C 83.335938 176.964844 83.460938 176.480469 83.648438 175.753906 C 83.75 175.394531 83.867188 174.972656 83.992188 174.523438 C 84.058594 174.296875 84.121094 174.0625 84.1875 173.828125 C 84.257812 173.589844 84.335938 173.351562 84.40625 173.113281 C 84.554688 172.636719 84.703125 172.15625 84.839844 171.710938 C 84.984375 171.265625 85.128906 170.851562 85.246094 170.492188 C 85.367188 170.136719 85.46875 169.84375 85.535156 169.636719 C 85.570312 169.53125 85.601562 169.449219 85.621094 169.394531 C 85.640625 169.339844 85.652344 169.3125 85.652344 169.3125 C 85.613281 169.226562 85.605469 169.144531 85.632812 169.074219 C 85.75 168.785156 86.402344 168.75 87.089844 168.992188 C 87.777344 169.238281 88.261719 169.667969 88.171875 169.953125 Z M 82.761719 152.304688 C 82.761719 152.304688 82.671875 152.226562 82.519531 152.171875 C 82.363281 152.113281 82.148438 152.074219 81.898438 152.152344 C 81.898438 152.152344 82.03125 152.148438 82.203125 152.183594 C 82.375 152.21875 82.585938 152.289062 82.75 152.441406 C 82.75 152.441406 82.597656 154.242188 82.441406 156.042969 C 82.28125 157.84375 82.101562 159.648438 82.101562 159.648438 C 82.097656 159.664062 82.097656 159.679688 82.09375 159.695312 C 82.160156 159.761719 82.195312 159.832031 82.191406 159.90625 C 82.183594 160.03125 82.050781 160.132812 81.84375 160.191406 L 82.113281 156.699219 C 82.113281 156.699219 81.976562 157.585938 81.820312 158.472656 C 81.742188 158.917969 81.664062 159.359375 81.605469 159.695312 C 81.546875 160.027344 81.507812 160.246094 81.507812 160.246094 C 81.386719 160.253906 81.261719 160.253906 81.128906 160.242188 C 80.558594 160.183594 80.125 159.945312 80.15625 159.707031 C 80.164062 159.636719 80.214844 159.570312 80.292969 159.519531 C 80.292969 159.503906 80.292969 159.488281 80.292969 159.472656 C 80.292969 159.472656 80.472656 157.640625 80.652344 155.8125 C 80.835938 153.980469 81.019531 152.148438 81.019531 152.148438 C 80.976562 152.082031 80.960938 152.011719 80.96875 151.941406 C 81.003906 151.660156 81.449219 151.46875 81.957031 151.515625 C 82.464844 151.5625 82.867188 151.828125 82.851562 152.113281 C 82.84375 152.183594 82.816406 152.25 82.761719 152.304688 Z M 82.273438 161.375 C 82.269531 161.445312 82.230469 161.511719 82.160156 161.566406 C 82.160156 161.566406 82.039062 161.484375 81.835938 161.417969 C 81.628906 161.355469 81.347656 161.308594 81.011719 161.375 C 81.011719 161.375 81.1875 161.378906 81.417969 161.417969 C 81.644531 161.460938 81.929688 161.542969 82.148438 161.699219 C 82.148438 161.699219 82.101562 162.152344 82.027344 162.828125 C 81.992188 163.167969 81.949219 163.5625 81.902344 163.984375 C 81.851562 164.40625 81.800781 164.859375 81.746094 165.308594 C 81.640625 166.210938 81.515625 167.113281 81.429688 167.789062 C 81.382812 168.128906 81.339844 168.410156 81.3125 168.605469 C 81.285156 168.804688 81.269531 168.914062 81.269531 168.914062 C 81.265625 168.929688 81.261719 168.945312 81.257812 168.960938 C 81.339844 169.035156 81.386719 169.109375 81.378906 169.179688 C 81.363281 169.308594 81.195312 169.398438 80.9375 169.445312 C 80.9375 169.445312 80.960938 169.226562 81 168.898438 C 81.039062 168.570312 81.09375 168.136719 81.140625 167.699219 C 81.234375 166.824219 81.324219 165.949219 81.324219 165.949219 C 81.324219 165.949219 81.277344 166.171875 81.207031 166.503906 C 81.132812 166.832031 81.035156 167.273438 80.9375 167.714844 C 80.839844 168.15625 80.726562 168.597656 80.648438 168.925781 C 80.566406 169.257812 80.511719 169.476562 80.511719 169.476562 C 80.367188 169.476562 80.207031 169.464844 80.042969 169.441406 C 79.332031 169.34375 78.789062 169.070312 78.828125 168.835938 C 78.839844 168.765625 78.902344 168.707031 79.003906 168.660156 C 79.003906 168.644531 79.003906 168.628906 79.003906 168.613281 C 79.003906 168.613281 79.019531 168.5 79.046875 168.300781 C 79.070312 168.101562 79.109375 167.820312 79.148438 167.476562 C 79.230469 166.796875 79.347656 165.886719 79.449219 164.976562 C 79.5 164.519531 79.550781 164.066406 79.601562 163.640625 C 79.648438 163.210938 79.691406 162.8125 79.726562 162.472656 C 79.800781 161.789062 79.851562 161.332031 79.851562 161.332031 C 79.796875 161.261719 79.769531 161.191406 79.777344 161.121094 C 79.820312 160.84375 80.402344 160.671875 81.078125 160.738281 C 81.757812 160.804688 82.292969 161.089844 82.273438 161.375 Z M 81.445312 170.667969 C 81.4375 170.738281 81.382812 170.800781 81.296875 170.851562 C 81.296875 170.851562 81.148438 170.757812 80.898438 170.679688 C 80.644531 170.597656 80.292969 170.527344 79.878906 170.570312 C 79.878906 170.570312 80.097656 170.585938 80.378906 170.644531 C 80.660156 170.707031 81.011719 170.808594 81.277344 170.988281 C 81.277344 170.988281 81.207031 171.4375 81.101562 172.113281 C 81.042969 172.453125 80.972656 172.847656 80.902344 173.269531 C 80.828125 173.691406 80.753906 174.140625 80.664062 174.589844 C 80.574219 175.039062 80.488281 175.488281 80.40625 175.910156 C 80.324219 176.328125 80.234375 176.71875 80.164062 177.054688 C 80.09375 177.390625 80.03125 177.671875 79.992188 177.867188 C 79.949219 178.0625 79.921875 178.175781 79.921875 178.175781 C 79.917969 178.191406 79.914062 178.207031 79.90625 178.21875 C 80.003906 178.300781 80.050781 178.382812 80.039062 178.457031 C 80.015625 178.582031 79.808594 178.65625 79.496094 178.671875 C 79.496094 178.671875 79.539062 178.453125 79.605469 178.128906 C 79.664062 177.800781 79.742188 177.367188 79.824219 176.933594 C 79.898438 176.5 79.984375 176.0625 80.035156 175.738281 C 80.085938 175.410156 80.121094 175.191406 80.121094 175.191406 C 80.121094 175.191406 80.058594 175.410156 79.957031 175.738281 C 79.863281 176.0625 79.71875 176.496094 79.578125 176.929688 C 79.433594 177.363281 79.292969 177.792969 79.179688 178.117188 C 79.066406 178.4375 78.988281 178.652344 78.988281 178.652344 C 78.8125 178.636719 78.625 178.605469 78.429688 178.5625 C 77.585938 178.382812 76.949219 178.050781 77.007812 177.820312 C 77.023438 177.75 77.101562 177.699219 77.226562 177.664062 C 77.226562 177.648438 77.226562 177.632812 77.230469 177.617188 C 77.230469 177.617188 77.253906 177.503906 77.289062 177.308594 C 77.324219 177.113281 77.375 176.835938 77.4375 176.5 C 77.5 176.164062 77.582031 175.773438 77.652344 175.351562 C 77.722656 174.933594 77.800781 174.484375 77.875 174.035156 C 77.957031 173.589844 78.023438 173.136719 78.089844 172.714844 C 78.15625 172.292969 78.21875 171.898438 78.273438 171.5625 C 78.371094 170.882812 78.4375 170.433594 78.4375 170.433594 C 78.371094 170.363281 78.339844 170.289062 78.351562 170.21875 C 78.402344 169.945312 79.128906 169.816406 79.976562 169.9375 C 80.820312 170.054688 81.476562 170.382812 81.445312 170.667969 Z M 75.949219 149.410156 C 78.449219 149.503906 80.023438 151.113281 80.023438 151.113281 C 78.210938 151.164062 75.949219 149.410156 75.949219 149.410156 Z M 76.027344 165.238281 C 76.027344 165.238281 75.871094 165.167969 75.617188 165.125 C 75.363281 165.082031 75.015625 165.066406 74.621094 165.164062 C 74.621094 165.164062 74.835938 165.152344 75.113281 165.167969 C 75.394531 165.1875 75.742188 165.238281 76.023438 165.375 C 76.023438 165.375 76.015625 165.828125 76 166.511719 C 75.980469 166.847656 75.957031 167.246094 75.933594 167.671875 C 75.929688 167.777344 75.921875 167.886719 75.914062 167.992188 C 75.90625 168.101562 75.894531 168.214844 75.882812 168.324219 C 75.863281 168.546875 75.839844 168.773438 75.820312 169 C 75.785156 169.449219 75.714844 169.898438 75.660156 170.320312 C 75.632812 170.53125 75.609375 170.734375 75.578125 170.929688 C 75.546875 171.121094 75.515625 171.300781 75.488281 171.46875 C 75.429688 171.804688 75.382812 172.082031 75.347656 172.277344 C 75.308594 172.472656 75.285156 172.585938 75.285156 172.585938 C 75.28125 172.601562 75.277344 172.613281 75.273438 172.628906 C 75.367188 172.707031 75.417969 172.785156 75.40625 172.859375 C 75.382812 172.984375 75.183594 173.0625 74.882812 173.085938 C 74.882812 173.085938 74.917969 172.871094 74.976562 172.546875 C 74.988281 172.46875 75.003906 172.378906 75.019531 172.289062 C 75.035156 172.195312 75.046875 172.097656 75.0625 171.996094 C 75.089844 171.792969 75.121094 171.578125 75.148438 171.363281 C 75.175781 171.148438 75.210938 170.933594 75.234375 170.730469 C 75.253906 170.527344 75.273438 170.339844 75.289062 170.175781 C 75.324219 169.851562 75.34375 169.636719 75.34375 169.636719 C 75.34375 169.636719 75.292969 169.851562 75.21875 170.179688 C 75.179688 170.34375 75.132812 170.535156 75.085938 170.738281 C 75.03125 170.941406 74.96875 171.15625 74.910156 171.371094 C 74.789062 171.804688 74.671875 172.230469 74.5625 172.550781 C 74.460938 172.867188 74.390625 173.078125 74.390625 173.078125 C 74.21875 173.066406 74.035156 173.039062 73.84375 173.003906 C 73.023438 172.839844 72.398438 172.535156 72.449219 172.316406 C 72.460938 172.25 72.535156 172.199219 72.652344 172.160156 C 72.652344 172.144531 72.652344 172.132812 72.65625 172.117188 C 72.65625 172.117188 72.675781 172.011719 72.707031 171.824219 C 72.734375 171.636719 72.773438 171.367188 72.816406 171.046875 C 72.839844 170.886719 72.867188 170.714844 72.890625 170.527344 C 72.914062 170.34375 72.933594 170.148438 72.957031 169.949219 C 73 169.546875 73.054688 169.117188 73.078125 168.683594 C 73.15625 167.824219 73.183594 166.960938 73.207031 166.3125 C 73.214844 165.664062 73.21875 165.234375 73.21875 165.234375 C 73.144531 165.175781 73.101562 165.113281 73.105469 165.046875 C 73.113281 164.78125 73.785156 164.558594 74.613281 164.542969 C 75.441406 164.527344 76.125 164.75 76.144531 165.039062 C 76.144531 165.109375 76.101562 165.175781 76.027344 165.238281 Z M 72.671875 155.972656 C 72.867188 155.835938 73.144531 155.714844 73.46875 155.636719 C 74.113281 155.484375 74.695312 155.582031 74.769531 155.859375 C 74.785156 155.925781 74.769531 156 74.722656 156.074219 C 74.722656 156.074219 74.585938 156.03125 74.378906 156.035156 C 74.167969 156.035156 73.894531 156.082031 73.609375 156.246094 C 73.609375 156.246094 73.769531 156.195312 73.992188 156.164062 C 74.21875 156.132812 74.503906 156.121094 74.753906 156.203125 C 74.753906 156.203125 74.777344 156.316406 74.820312 156.507812 C 74.867188 156.699219 74.917969 156.976562 74.984375 157.304688 C 75.015625 157.472656 75.050781 157.652344 75.089844 157.839844 C 75.128906 158.03125 75.15625 158.234375 75.191406 158.441406 C 75.226562 158.652344 75.261719 158.867188 75.296875 159.085938 C 75.332031 159.304688 75.355469 159.527344 75.386719 159.753906 C 75.511719 160.648438 75.578125 161.546875 75.632812 162.21875 C 75.667969 162.894531 75.691406 163.347656 75.691406 163.347656 C 75.691406 163.363281 75.691406 163.378906 75.6875 163.394531 C 75.78125 163.449219 75.839844 163.515625 75.84375 163.585938 C 75.847656 163.714844 75.703125 163.832031 75.460938 163.917969 C 75.460938 163.917969 75.460938 163.863281 75.457031 163.769531 C 75.453125 163.675781 75.445312 163.539062 75.433594 163.375 C 75.40625 163.050781 75.375 162.621094 75.339844 162.1875 C 75.292969 161.757812 75.246094 161.324219 75.210938 161.003906 C 75.179688 160.679688 75.140625 160.464844 75.140625 160.464844 C 75.140625 160.464844 75.15625 160.6875 75.152344 161.023438 C 75.152344 161.355469 75.160156 161.800781 75.152344 162.246094 C 75.132812 162.6875 75.113281 163.132812 75.101562 163.464844 C 75.097656 163.628906 75.078125 163.769531 75.074219 163.863281 C 75.066406 163.960938 75.058594 164.015625 75.058594 164.015625 C 74.917969 164.039062 74.765625 164.054688 74.605469 164.058594 C 73.90625 164.074219 73.34375 163.90625 73.347656 163.679688 C 73.347656 163.613281 73.394531 163.546875 73.480469 163.488281 C 73.480469 163.472656 73.476562 163.457031 73.476562 163.441406 C 73.476562 163.441406 73.449219 163.007812 73.40625 162.359375 C 73.34375 161.710938 73.269531 160.84375 73.140625 159.984375 C 73.089844 159.550781 73.011719 159.125 72.949219 158.71875 C 72.886719 158.316406 72.804688 157.945312 72.746094 157.625 C 72.714844 157.464844 72.6875 157.316406 72.660156 157.183594 C 72.632812 157.054688 72.609375 156.941406 72.585938 156.847656 C 72.546875 156.664062 72.523438 156.554688 72.523438 156.554688 C 72.449219 156.511719 72.40625 156.457031 72.394531 156.390625 C 72.367188 156.257812 72.476562 156.109375 72.671875 155.972656 Z M 88.410156 160.332031 C 88.410156 160.332031 85.339844 162.15625 83.109375 161.816406 C 83.109375 161.816406 85.308594 160.066406 88.410156 160.332031 Z M 84.316406 156.914062 C 84.316406 156.914062 84.09375 159.066406 83.109375 160.023438 C 83.109375 160.023438 83.046875 158.320312 84.316406 156.914062 Z M 87.269531 155.878906 C 87.269531 155.878906 85.625 159.734375 83.253906 160.949219 C 83.253906 160.949219 84.121094 157.761719 87.269531 155.878906 Z M 92.886719 165.101562 C 92.886719 165.101562 91.269531 167.707031 89.421875 168.324219 C 89.421875 168.324219 90.398438 166.117188 92.886719 165.101562 Z M 71.433594 170.640625 C 70.503906 168.941406 71.109375 165.945312 71.109375 165.945312 C 72.230469 168.363281 71.433594 170.640625 71.433594 170.640625 Z M 70.855469 171.828125 C 68.160156 169.21875 67.550781 163.335938 67.550781 163.335938 C 71.019531 167.171875 70.855469 171.828125 70.855469 171.828125 Z M 90.101562 170.5625 C 90.101562 170.5625 93.015625 169.890625 96.464844 170.949219 C 97.070312 169.203125 97.402344 167.328125 97.402344 165.378906 C 97.402344 161.648438 96.195312 158.195312 94.152344 155.378906 C 94.101562 155.464844 94.054688 155.550781 94.007812 155.640625 C 93.523438 156.472656 93.082031 157.328125 92.742188 157.964844 C 92.65625 158.125 92.578125 158.269531 92.507812 158.398438 C 92.445312 158.53125 92.386719 158.644531 92.339844 158.738281 C 92.246094 158.925781 92.191406 159.035156 92.191406 159.035156 C 92.183594 159.050781 92.175781 159.0625 92.167969 159.078125 C 92.191406 159.160156 92.1875 159.242188 92.15625 159.3125 C 92.097656 159.433594 91.957031 159.496094 91.777344 159.5 C 91.777344 159.5 91.878906 159.292969 92.03125 158.976562 C 92.109375 158.820312 92.199219 158.636719 92.292969 158.4375 C 92.386719 158.242188 92.5 158.035156 92.605469 157.828125 C 92.820312 157.414062 93.035156 157 93.195312 156.6875 C 93.277344 156.53125 93.339844 156.402344 93.390625 156.3125 C 93.441406 156.222656 93.46875 156.171875 93.46875 156.171875 C 93.46875 156.171875 93.339844 156.371094 93.15625 156.683594 C 92.96875 156.992188 92.722656 157.402344 92.472656 157.8125 C 92.21875 158.21875 91.984375 158.636719 91.800781 158.949219 C 91.621094 159.261719 91.5 159.46875 91.5 159.46875 C 91.40625 159.445312 91.308594 159.414062 91.214844 159.367188 C 90.804688 159.164062 90.574219 158.8125 90.699219 158.585938 C 90.738281 158.515625 90.800781 158.464844 90.882812 158.433594 C 90.890625 158.417969 90.898438 158.402344 90.90625 158.386719 C 90.90625 158.386719 90.960938 158.277344 91.0625 158.082031 C 91.113281 157.984375 91.171875 157.867188 91.242188 157.734375 C 91.316406 157.601562 91.398438 157.449219 91.488281 157.285156 C 91.671875 156.957031 91.882812 156.578125 92.109375 156.167969 C 92.164062 156.066406 92.222656 155.960938 92.28125 155.855469 C 92.34375 155.75 92.40625 155.648438 92.464844 155.539062 C 92.59375 155.328125 92.71875 155.113281 92.847656 154.898438 C 92.972656 154.683594 93.101562 154.46875 93.226562 154.257812 C 93.289062 154.152344 93.351562 154.050781 93.414062 153.945312 C 93.480469 153.84375 93.542969 153.742188 93.605469 153.644531 C 93.855469 153.25 94.089844 152.882812 94.292969 152.566406 C 94.390625 152.40625 94.484375 152.261719 94.566406 152.132812 C 94.652344 152.007812 94.726562 151.898438 94.785156 151.808594 L 92.835938 153.777344 C 90.277344 151.015625 86.816406 149.089844 82.914062 148.445312 C 82.816406 149.554688 82.738281 150.398438 82.738281 150.398438 C 82.738281 150.414062 82.734375 150.429688 82.730469 150.445312 C 82.78125 150.511719 82.808594 150.582031 82.804688 150.652344 C 82.796875 150.777344 82.695312 150.882812 82.539062 150.949219 C 82.539062 150.949219 82.605469 150.078125 82.671875 149.203125 C 82.695312 148.933594 82.714844 148.660156 82.734375 148.417969 C 82.714844 148.414062 82.695312 148.410156 82.675781 148.40625 C 82.636719 148.664062 82.59375 148.949219 82.554688 149.238281 C 82.421875 150.125 82.285156 151.015625 82.285156 151.015625 C 82.199219 151.023438 82.101562 151.027344 82.003906 151.019531 C 81.578125 150.976562 81.257812 150.753906 81.289062 150.511719 C 81.296875 150.441406 81.335938 150.375 81.398438 150.320312 C 81.398438 150.304688 81.398438 150.289062 81.398438 150.273438 C 81.398438 150.273438 81.445312 149.816406 81.515625 149.128906 C 81.589844 148.441406 81.6875 147.523438 81.792969 146.605469 C 81.894531 145.691406 82.011719 144.773438 82.097656 144.085938 C 82.136719 143.742188 82.179688 143.457031 82.203125 143.257812 L 81.082031 148.238281 C 80.738281 148.21875 80.390625 148.210938 80.039062 148.210938 C 79.65625 148.210938 79.273438 148.222656 78.898438 148.246094 C 80.277344 149.5625 80.871094 150.871094 80.871094 150.871094 C 78.199219 150 75.835938 146.261719 75.835938 146.261719 C 75.835938 146.261719 76.261719 147.503906 76.835938 148.5 C 75.355469 148.773438 73.9375 149.234375 72.613281 149.855469 C 72.734375 150.1875 72.867188 150.535156 72.988281 150.886719 C 73.128906 151.308594 73.277344 151.730469 73.398438 152.128906 C 73.523438 152.53125 73.644531 152.902344 73.734375 153.226562 C 73.917969 153.871094 74.039062 154.300781 74.039062 154.300781 C 74.042969 154.316406 74.042969 154.332031 74.046875 154.347656 C 74.128906 154.386719 74.1875 154.441406 74.207031 154.511719 C 74.242188 154.628906 74.15625 154.769531 73.988281 154.890625 C 73.988281 154.890625 73.929688 154.683594 73.84375 154.371094 C 73.75 154.0625 73.625 153.648438 73.5 153.234375 C 73.367188 152.828125 73.234375 152.417969 73.132812 152.109375 C 73.085938 151.957031 73.035156 151.832031 73.003906 151.742188 C 72.972656 151.652344 72.957031 151.601562 72.957031 151.601562 C 72.957031 151.601562 72.96875 151.65625 72.996094 151.75 C 73.019531 151.84375 73.054688 151.976562 73.09375 152.136719 C 73.167969 152.460938 73.273438 152.890625 73.367188 153.320312 C 73.453125 153.753906 73.542969 154.183594 73.605469 154.507812 C 73.660156 154.835938 73.695312 155.050781 73.695312 155.050781 C 73.589844 155.097656 73.472656 155.136719 73.351562 155.167969 C 72.808594 155.300781 72.332031 155.226562 72.285156 155.003906 C 72.269531 154.9375 72.292969 154.863281 72.347656 154.789062 C 72.34375 154.773438 72.339844 154.761719 72.335938 154.746094 C 72.335938 154.746094 72.214844 154.324219 72.039062 153.6875 C 71.945312 153.371094 71.828125 153.003906 71.707031 152.609375 C 71.585938 152.21875 71.441406 151.800781 71.308594 151.382812 C 71.160156 150.964844 71.015625 150.550781 70.878906 150.160156 C 70.734375 149.773438 70.597656 149.410156 70.484375 149.101562 C 70.242188 148.484375 70.078125 148.074219 70.078125 148.070312 L 70.535156 151.007812 C 65.800781 154.074219 62.675781 159.367188 62.675781 165.378906 C 62.675781 165.984375 62.707031 166.582031 62.769531 167.171875 C 67.136719 168.519531 69.398438 171.820312 69.398438 171.820312 C 65.664062 171.28125 61.667969 166.882812 61.667969 166.882812 C 61.667969 166.882812 62.234375 168.074219 63.058594 168.976562 C 63.980469 173.253906 66.511719 176.945312 70 179.390625 L 69.929688 180.390625 C 69.933594 180.375 69.9375 180.363281 69.941406 180.347656 C 69.941406 180.347656 70.597656 178.753906 71.09375 177.109375 C 71.214844 176.699219 71.335938 176.285156 71.445312 175.898438 C 71.550781 175.511719 71.636719 175.144531 71.71875 174.832031 C 71.757812 174.675781 71.796875 174.535156 71.824219 174.40625 C 71.851562 174.277344 71.875 174.167969 71.894531 174.074219 C 71.9375 173.890625 71.960938 173.789062 71.960938 173.789062 C 71.882812 173.710938 71.847656 173.640625 71.867188 173.574219 C 71.9375 173.324219 72.78125 173.28125 73.753906 173.480469 C 74.726562 173.679688 75.472656 174.070312 75.417969 174.355469 C 75.402344 174.425781 75.339844 174.484375 75.238281 174.523438 C 75.238281 174.523438 75.070312 174.414062 74.785156 174.304688 C 74.496094 174.199219 74.09375 174.089844 73.613281 174.085938 C 73.613281 174.085938 73.863281 174.125 74.1875 174.21875 C 74.511719 174.308594 74.90625 174.449219 75.203125 174.65625 C 75.203125 174.65625 75.179688 174.769531 75.128906 174.960938 C 75.105469 175.058594 75.082031 175.179688 75.042969 175.3125 C 75.007812 175.445312 74.964844 175.597656 74.917969 175.761719 C 74.871094 175.929688 74.820312 176.105469 74.769531 176.296875 C 74.714844 176.484375 74.660156 176.683594 74.59375 176.886719 C 74.460938 177.296875 74.324219 177.730469 74.179688 178.164062 C 74.023438 178.59375 73.863281 179.023438 73.71875 179.425781 C 73.5625 179.824219 73.40625 180.195312 73.277344 180.511719 C 73.1875 180.738281 73.101562 180.933594 73.03125 181.09375 C 73.695312 181.382812 74.382812 181.636719 75.09375 181.84375 L 74.660156 186.359375 C 74.660156 186.359375 74.789062 185.925781 74.984375 185.28125 C 75.082031 184.957031 75.179688 184.574219 75.292969 184.164062 C 75.347656 183.960938 75.40625 183.75 75.464844 183.535156 C 75.496094 183.429688 75.523438 183.320312 75.554688 183.210938 C 75.582031 183.101562 75.609375 182.992188 75.636719 182.882812 C 75.746094 182.445312 75.855469 182.007812 75.960938 181.597656 C 76.011719 181.390625 76.058594 181.191406 76.101562 181.003906 C 76.144531 180.8125 76.1875 180.632812 76.226562 180.46875 C 76.378906 179.808594 76.480469 179.367188 76.480469 179.367188 C 76.398438 179.285156 76.367188 179.210938 76.382812 179.144531 C 76.453125 178.875 77.320312 178.832031 78.320312 179.050781 C 79.320312 179.269531 80.085938 179.679688 80.035156 179.964844 C 80.023438 180.035156 79.957031 180.089844 79.851562 180.132812 C 79.851562 180.132812 79.679688 180.019531 79.386719 179.910156 C 79.089844 179.796875 78.675781 179.683594 78.179688 179.679688 C 78.179688 179.679688 79.210938 179.847656 79.820312 180.265625 C 79.820312 180.265625 79.703125 180.710938 79.535156 181.382812 C 79.449219 181.71875 79.34375 182.109375 79.226562 182.53125 C 79.496094 182.542969 79.765625 182.550781 80.039062 182.550781 C 80.421875 182.550781 80.804688 182.535156 81.1875 182.511719 L 80.992188 186.742188 C 80.992188 186.734375 80.996094 186.707031 81.003906 186.65625 C 81.011719 186.597656 81.023438 186.511719 81.042969 186.40625 C 81.078125 186.1875 81.128906 185.878906 81.1875 185.511719 C 81.25 185.140625 81.316406 184.707031 81.398438 184.246094 C 81.484375 183.785156 81.578125 183.292969 81.667969 182.800781 C 81.757812 182.308594 81.863281 181.820312 81.960938 181.359375 C 82.058594 180.902344 82.148438 180.472656 82.226562 180.105469 C 82.398438 179.375 82.511719 178.886719 82.511719 178.886719 C 82.449219 178.800781 82.421875 178.71875 82.441406 178.644531 C 82.527344 178.34375 83.3125 178.28125 84.199219 178.496094 C 85.085938 178.714844 85.757812 179.128906 85.699219 179.421875 C 85.683594 179.496094 85.625 179.554688 85.527344 179.597656 C 85.527344 179.597656 85.375 179.488281 85.113281 179.378906 C 84.855469 179.269531 84.484375 179.160156 84.039062 179.167969 C 84.039062 179.167969 84.269531 179.203125 84.566406 179.296875 C 84.863281 179.386719 85.222656 179.527344 85.492188 179.738281 C 85.492188 179.738281 85.464844 179.855469 85.414062 180.058594 C 85.367188 180.261719 85.289062 180.550781 85.210938 180.898438 C 85.148438 181.179688 85.074219 181.496094 85 181.835938 C 89.71875 180.449219 93.597656 177.128906 95.699219 172.804688 C 97.730469 172.6875 99.167969 172.132812 99.167969 172.132812 C 99.167969 172.132812 93.210938 172.671875 90.101562 170.5625 " fill-opacity="1" fill-rule="nonzero"/></g><g fill="#498536" fill-opacity="1"><g transform="translate(57.975529, 198.524973)"><g><path d="M 2.046875 -5.109375 L 0.03125 -5.109375 L 0.03125 -6.296875 L 5.53125 -6.296875 L 5.53125 -5.109375 L 3.515625 -5.109375 L 3.515625 0 L 2.046875 0 Z M 2.046875 -5.109375 "/></g></g></g><g fill="#498536" fill-opacity="1"><g transform="translate(65.796563, 198.524973)"><g><path d="M 0.75 -6.296875 L 2.203125 -6.296875 L 2.203125 0 L 0.75 0 Z M 0.75 -6.296875 "/></g></g></g><g fill="#498536" fill-opacity="1"><g transform="translate(71.007589, 198.524973)"><g><path d="M 6.53125 -6.296875 L 6.53125 0 L 5.328125 0 L 2.1875 -3.828125 L 2.1875 0 L 0.75 0 L 0.75 -6.296875 L 1.953125 -6.296875 L 5.078125 -2.46875 L 5.078125 -6.296875 Z M 6.53125 -6.296875 "/></g></g></g><g fill="#498536" fill-opacity="1"><g transform="translate(80.538644, 198.524973)"><g><path d="M 6.53125 -6.296875 L 6.53125 0 L 5.0625 0 L 5.0625 -2.578125 L 2.203125 -2.578125 L 2.203125 0 L 0.75 0 L 0.75 -6.296875 L 2.203125 -6.296875 L 2.203125 -3.8125 L 5.0625 -3.8125 L 5.0625 -6.296875 Z M 6.53125 -6.296875 "/></g></g></g><g fill="#498536" fill-opacity="1"><g transform="translate(90.069701, 198.524973)"><g/></g></g><g fill="#498536" fill-opacity="1"><g transform="translate(94.875721, 198.524973)"><g><path d="M 6.53125 -6.296875 L 6.53125 0 L 5.0625 0 L 5.0625 -2.578125 L 2.203125 -2.578125 L 2.203125 0 L 0.75 0 L 0.75 -6.296875 L 2.203125 -6.296875 L 2.203125 -3.8125 L 5.0625 -3.8125 L 5.0625 -6.296875 Z M 6.53125 -6.296875 "/></g></g></g><g fill="#498536" fill-opacity="1"><g transform="translate(104.406778, 198.524973)"><g><path d="M 3.796875 0.109375 C 3.140625 0.109375 2.546875 -0.03125 2.015625 -0.3125 C 1.492188 -0.59375 1.082031 -0.976562 0.78125 -1.46875 C 0.488281 -1.96875 0.34375 -2.53125 0.34375 -3.15625 C 0.34375 -3.769531 0.488281 -4.320312 0.78125 -4.8125 C 1.082031 -5.3125 1.492188 -5.703125 2.015625 -5.984375 C 2.546875 -6.265625 3.140625 -6.40625 3.796875 -6.40625 C 4.453125 -6.40625 5.039062 -6.265625 5.5625 -5.984375 C 6.082031 -5.703125 6.492188 -5.3125 6.796875 -4.8125 C 7.097656 -4.320312 7.25 -3.769531 7.25 -3.15625 C 7.25 -2.53125 7.097656 -1.96875 6.796875 -1.46875 C 6.492188 -0.976562 6.082031 -0.59375 5.5625 -0.3125 C 5.039062 -0.03125 4.453125 0.109375 3.796875 0.109375 Z M 3.796875 -1.140625 C 4.171875 -1.140625 4.503906 -1.222656 4.796875 -1.390625 C 5.097656 -1.554688 5.332031 -1.789062 5.5 -2.09375 C 5.675781 -2.40625 5.765625 -2.757812 5.765625 -3.15625 C 5.765625 -3.539062 5.675781 -3.882812 5.5 -4.1875 C 5.332031 -4.5 5.097656 -4.738281 4.796875 -4.90625 C 4.503906 -5.082031 4.171875 -5.171875 3.796875 -5.171875 C 3.421875 -5.171875 3.082031 -5.082031 2.78125 -4.90625 C 2.488281 -4.738281 2.253906 -4.5 2.078125 -4.1875 C 1.910156 -3.882812 1.828125 -3.539062 1.828125 -3.15625 C 1.828125 -2.757812 1.910156 -2.40625 2.078125 -2.09375 C 2.253906 -1.789062 2.488281 -1.554688 2.78125 -1.390625 C 3.082031 -1.222656 3.421875 -1.140625 3.796875 -1.140625 Z M 3.796875 -1.140625 "/></g></g></g><g fill="#498536" fill-opacity="1"><g transform="translate(114.261826, 198.524973)"><g><path d="M 4.890625 -1.34375 L 1.96875 -1.34375 L 1.40625 0 L -0.078125 0 L 2.734375 -6.296875 L 4.171875 -6.296875 L 6.984375 0 L 5.453125 0 Z M 4.4375 -2.453125 L 3.4375 -4.875 L 2.4375 -2.453125 Z M 4.4375 -2.453125 "/></g></g></g><g fill="#498536" fill-opacity="1"><g transform="translate(123.414873, 198.524973)"><g/></g></g><g fill="#498536" fill-opacity="1"><g transform="translate(128.220893, 198.524973)"><g><path d="M 2.046875 -5.109375 L 0.03125 -5.109375 L 0.03125 -6.296875 L 5.53125 -6.296875 L 5.53125 -5.109375 L 3.515625 -5.109375 L 3.515625 0 L 2.046875 0 Z M 2.046875 -5.109375 "/></g></g></g><g fill="#498536" fill-opacity="1"><g transform="translate(136.041928, 198.524973)"><g><path d="M 3.546875 0.109375 C 2.648438 0.109375 1.945312 -0.140625 1.4375 -0.640625 C 0.9375 -1.140625 0.6875 -1.847656 0.6875 -2.765625 L 0.6875 -6.296875 L 2.15625 -6.296875 L 2.15625 -2.828125 C 2.15625 -1.703125 2.625 -1.140625 3.5625 -1.140625 C 4.007812 -1.140625 4.351562 -1.273438 4.59375 -1.546875 C 4.832031 -1.816406 4.953125 -2.242188 4.953125 -2.828125 L 4.953125 -6.296875 L 6.40625 -6.296875 L 6.40625 -2.765625 C 6.40625 -1.847656 6.148438 -1.140625 5.640625 -0.640625 C 5.140625 -0.140625 4.441406 0.109375 3.546875 0.109375 Z M 5.65625 -6.296875 L 5.90625 -6.296875 C 6.0625 -6.296875 6.1875 -6.347656 6.28125 -6.453125 C 6.382812 -6.554688 6.4375 -6.691406 6.4375 -6.859375 C 6.4375 -7.066406 6.378906 -7.25 6.265625 -7.40625 L 7.09375 -7.703125 C 7.28125 -7.453125 7.375 -7.15625 7.375 -6.8125 C 7.375 -6.363281 7.238281 -6.007812 6.96875 -5.75 C 6.707031 -5.488281 6.335938 -5.359375 5.859375 -5.359375 L 5.65625 -5.359375 Z M 3.546875 1.890625 C 3.367188 1.890625 3.21875 1.832031 3.09375 1.71875 C 2.976562 1.613281 2.921875 1.46875 2.921875 1.28125 C 2.921875 1.101562 2.976562 0.953125 3.09375 0.828125 C 3.21875 0.710938 3.367188 0.65625 3.546875 0.65625 C 3.722656 0.65625 3.867188 0.710938 3.984375 0.828125 C 4.109375 0.953125 4.171875 1.101562 4.171875 1.28125 C 4.171875 1.46875 4.109375 1.613281 3.984375 1.71875 C 3.867188 1.832031 3.722656 1.890625 3.546875 1.890625 Z M 3.546875 1.890625 "/></g></g></g><g fill="#498536" fill-opacity="1"><g transform="translate(145.509973, 198.524973)"><g/></g></g><g fill="#498536" fill-opacity="1"><g transform="translate(150.315994, 198.524973)"><g><path d="M 6.53125 -6.296875 L 6.53125 0 L 5.328125 0 L 2.1875 -3.828125 L 2.1875 0 L 0.75 0 L 0.75 -6.296875 L 1.953125 -6.296875 L 5.078125 -2.46875 L 5.078125 -6.296875 Z M 6.53125 -6.296875 "/></g></g></g><g fill="#498536" fill-opacity="1"><g transform="translate(159.847051, 198.524973)"><g><path d="M 6.53125 -6.296875 L 6.53125 0 L 5.0625 0 L 5.0625 -2.578125 L 2.203125 -2.578125 L 2.203125 0 L 0.75 0 L 0.75 -6.296875 L 2.203125 -6.296875 L 2.203125 -3.8125 L 5.0625 -3.8125 L 5.0625 -6.296875 Z M 6.53125 -6.296875 "/></g></g></g><g fill="#498536" fill-opacity="1"><g transform="translate(169.378102, 198.524973)"><g><path d="M 0.75 -6.296875 L 2.203125 -6.296875 L 2.203125 0 L 0.75 0 Z M 0.75 -6.296875 "/></g></g></g><g fill="#498536" fill-opacity="1"><g transform="translate(174.589123, 198.524973)"><g><path d="M 5.625 -1.171875 L 5.625 0 L 0.75 0 L 0.75 -6.296875 L 5.515625 -6.296875 L 5.515625 -5.125 L 2.203125 -5.125 L 2.203125 -3.765625 L 5.125 -3.765625 L 5.125 -2.625 L 2.203125 -2.625 L 2.203125 -1.171875 Z M 3.90625 -6.8125 L 3.125 -7.5 L 2.34375 -6.8125 L 1.3125 -6.8125 L 2.5 -8.109375 L 3.75 -8.109375 L 4.9375 -6.8125 Z M 3.90625 -6.8125 "/></g></g></g><g fill="#498536" fill-opacity="1"><g transform="translate(182.887164, 198.524973)"><g><path d="M 6.53125 -6.296875 L 6.53125 0 L 5.328125 0 L 2.1875 -3.828125 L 2.1875 0 L 0.75 0 L 0.75 -6.296875 L 1.953125 -6.296875 L 5.078125 -2.46875 L 5.078125 -6.296875 Z M 6.53125 -6.296875 "/></g></g></g><g fill="#498536" fill-opacity="1"><g transform="translate(192.418215, 198.524973)"><g/></g></g><g fill="#498536" fill-opacity="1"><g transform="translate(197.22423, 198.524973)"><g><path d="M 2.046875 -5.109375 L 0.03125 -5.109375 L 0.03125 -6.296875 L 5.53125 -6.296875 L 5.53125 -5.109375 L 3.515625 -5.109375 L 3.515625 0 L 2.046875 0 Z M 2.046875 -5.109375 "/></g></g></g><g fill="#498536" fill-opacity="1"><g transform="translate(205.045259, 198.524973)"><g><path d="M 3.546875 0.109375 C 2.648438 0.109375 1.945312 -0.140625 1.4375 -0.640625 C 0.9375 -1.140625 0.6875 -1.847656 0.6875 -2.765625 L 0.6875 -6.296875 L 2.15625 -6.296875 L 2.15625 -2.828125 C 2.15625 -1.703125 2.625 -1.140625 3.5625 -1.140625 C 4.007812 -1.140625 4.351562 -1.273438 4.59375 -1.546875 C 4.832031 -1.816406 4.953125 -2.242188 4.953125 -2.828125 L 4.953125 -6.296875 L 6.40625 -6.296875 L 6.40625 -2.765625 C 6.40625 -1.847656 6.148438 -1.140625 5.640625 -0.640625 C 5.140625 -0.140625 4.441406 0.109375 3.546875 0.109375 Z M 5.65625 -6.296875 L 5.90625 -6.296875 C 6.0625 -6.296875 6.1875 -6.347656 6.28125 -6.453125 C 6.382812 -6.554688 6.4375 -6.691406 6.4375 -6.859375 C 6.4375 -7.066406 6.378906 -7.25 6.265625 -7.40625 L 7.09375 -7.703125 C 7.28125 -7.453125 7.375 -7.15625 7.375 -6.8125 C 7.375 -6.363281 7.238281 -6.007812 6.96875 -5.75 C 6.707031 -5.488281 6.335938 -5.359375 5.859375 -5.359375 L 5.65625 -5.359375 Z M 1.640625 -8.109375 L 3.15625 -8.109375 L 4.375 -6.8125 L 3.265625 -6.8125 Z M 1.640625 -8.109375 "/></g></g></g><g fill="#498536" fill-opacity="1"><g transform="translate(214.513299, 198.524973)"><g/></g></g><g fill="#498536" fill-opacity="1"><g transform="translate(219.319314, 198.524973)"><g><path d="M 0.75 -6.296875 L 2.203125 -6.296875 L 2.203125 -1.1875 L 5.359375 -1.1875 L 5.359375 0 L 0.75 0 Z M 0.75 -6.296875 "/></g></g></g><g fill="#498536" fill-opacity="1"><g transform="translate(227.014343, 198.524973)"><g><path d="M 4.890625 -1.34375 L 1.96875 -1.34375 L 1.40625 0 L -0.078125 0 L 2.734375 -6.296875 L 4.171875 -6.296875 L 6.984375 0 L 5.453125 0 Z M 4.4375 -2.453125 L 3.4375 -4.875 L 2.4375 -2.453125 Z M 1.53125 -8.109375 L 3.046875 -8.109375 L 4.265625 -6.8125 L 3.15625 -6.8125 Z M 1.53125 -8.109375 "/></g></g></g><g fill="#498536" fill-opacity="1"><g transform="translate(236.167385, 198.524973)"><g><path d="M 6.53125 -6.296875 L 6.53125 0 L 5.328125 0 L 2.1875 -3.828125 L 2.1875 0 L 0.75 0 L 0.75 -6.296875 L 1.953125 -6.296875 L 5.078125 -2.46875 L 5.078125 -6.296875 Z M 6.53125 -6.296875 "/></g></g></g><g fill="#498536" fill-opacity="1"><g transform="translate(245.698436, 198.524973)"><g><path d="M 5 -3.25 L 6.34375 -3.25 L 6.34375 -0.6875 C 6 -0.4375 5.597656 -0.238281 5.140625 -0.09375 C 4.691406 0.0390625 4.238281 0.109375 3.78125 0.109375 C 3.132812 0.109375 2.546875 -0.03125 2.015625 -0.3125 C 1.492188 -0.59375 1.082031 -0.976562 0.78125 -1.46875 C 0.488281 -1.96875 0.34375 -2.53125 0.34375 -3.15625 C 0.34375 -3.78125 0.488281 -4.335938 0.78125 -4.828125 C 1.082031 -5.328125 1.5 -5.710938 2.03125 -5.984375 C 2.5625 -6.265625 3.15625 -6.40625 3.8125 -6.40625 C 4.363281 -6.40625 4.863281 -6.3125 5.3125 -6.125 C 5.769531 -5.9375 6.148438 -5.664062 6.453125 -5.3125 L 5.515625 -4.453125 C 5.066406 -4.929688 4.523438 -5.171875 3.890625 -5.171875 C 3.484375 -5.171875 3.125 -5.082031 2.8125 -4.90625 C 2.5 -4.738281 2.253906 -4.503906 2.078125 -4.203125 C 1.910156 -3.898438 1.828125 -3.550781 1.828125 -3.15625 C 1.828125 -2.757812 1.910156 -2.40625 2.078125 -2.09375 C 2.253906 -1.789062 2.5 -1.554688 2.8125 -1.390625 C 3.125 -1.222656 3.476562 -1.140625 3.875 -1.140625 C 4.289062 -1.140625 4.664062 -1.226562 5 -1.40625 Z M 5 -3.25 "/></g></g></g><g fill="#498536" fill-opacity="1"><g transform="translate(254.896475, 198.524973)"><g/></g></g><g fill="#498536" fill-opacity="1"><g transform="translate(259.70249, 198.524973)"><g><path d="M 7.5625 0.671875 C 7.351562 0.921875 7.101562 1.113281 6.8125 1.25 C 6.519531 1.382812 6.203125 1.453125 5.859375 1.453125 C 5.390625 1.453125 4.960938 1.347656 4.578125 1.140625 C 4.203125 0.941406 3.773438 0.585938 3.296875 0.078125 C 2.722656 0.00390625 2.210938 -0.175781 1.765625 -0.46875 C 1.316406 -0.757812 0.96875 -1.132812 0.71875 -1.59375 C 0.46875 -2.0625 0.34375 -2.582031 0.34375 -3.15625 C 0.34375 -3.769531 0.488281 -4.320312 0.78125 -4.8125 C 1.082031 -5.3125 1.492188 -5.703125 2.015625 -5.984375 C 2.546875 -6.265625 3.140625 -6.40625 3.796875 -6.40625 C 4.453125 -6.40625 5.039062 -6.265625 5.5625 -5.984375 C 6.082031 -5.703125 6.492188 -5.3125 6.796875 -4.8125 C 7.097656 -4.320312 7.25 -3.769531 7.25 -3.15625 C 7.25 -2.414062 7.039062 -1.769531 6.625 -1.21875 C 6.21875 -0.664062 5.675781 -0.285156 5 -0.078125 C 5.144531 0.078125 5.285156 0.191406 5.421875 0.265625 C 5.566406 0.335938 5.722656 0.375 5.890625 0.375 C 6.273438 0.375 6.613281 0.21875 6.90625 -0.09375 Z M 1.828125 -3.15625 C 1.828125 -2.757812 1.910156 -2.40625 2.078125 -2.09375 C 2.253906 -1.789062 2.488281 -1.554688 2.78125 -1.390625 C 3.082031 -1.222656 3.421875 -1.140625 3.796875 -1.140625 C 4.171875 -1.140625 4.503906 -1.222656 4.796875 -1.390625 C 5.097656 -1.554688 5.332031 -1.789062 5.5 -2.09375 C 5.675781 -2.40625 5.765625 -2.757812 5.765625 -3.15625 C 5.765625 -3.539062 5.675781 -3.882812 5.5 -4.1875 C 5.332031 -4.5 5.097656 -4.738281 4.796875 -4.90625 C 4.503906 -5.082031 4.171875 -5.171875 3.796875 -5.171875 C 3.421875 -5.171875 3.082031 -5.082031 2.78125 -4.90625 C 2.488281 -4.738281 2.253906 -4.5 2.078125 -4.1875 C 1.910156 -3.882812 1.828125 -3.539062 1.828125 -3.15625 Z M 1.828125 -3.15625 "/></g></g></g><g fill="#498536" fill-opacity="1"><g transform="translate(269.557546, 198.524973)"><g><path d="M 3.546875 0.109375 C 2.648438 0.109375 1.945312 -0.140625 1.4375 -0.640625 C 0.9375 -1.140625 0.6875 -1.847656 0.6875 -2.765625 L 0.6875 -6.296875 L 2.15625 -6.296875 L 2.15625 -2.828125 C 2.15625 -1.703125 2.625 -1.140625 3.5625 -1.140625 C 4.007812 -1.140625 4.351562 -1.273438 4.59375 -1.546875 C 4.832031 -1.816406 4.953125 -2.242188 4.953125 -2.828125 L 4.953125 -6.296875 L 6.40625 -6.296875 L 6.40625 -2.765625 C 6.40625 -1.847656 6.148438 -1.140625 5.640625 -0.640625 C 5.140625 -0.140625 4.441406 0.109375 3.546875 0.109375 Z M 3.546875 0.109375 "/></g></g></g><g fill="#498536" fill-opacity="1"><g transform="translate(278.908604, 198.524973)"><g><path d="M 5.625 -1.171875 L 5.625 0 L 0.75 0 L 0.75 -6.296875 L 5.515625 -6.296875 L 5.515625 -5.125 L 2.203125 -5.125 L 2.203125 -3.765625 L 5.125 -3.765625 L 5.125 -2.625 L 2.203125 -2.625 L 2.203125 -1.171875 Z M 3.90625 -6.8125 L 3.125 -7.5 L 2.34375 -6.8125 L 1.3125 -6.8125 L 2.5 -8.109375 L 3.75 -8.109375 L 4.9375 -6.8125 Z M 3.90625 -6.8125 "/></g></g></g><g fill="#498536" fill-opacity="1"><g transform="translate(287.206646, 198.524973)"><g/></g></g><g fill="#498536" fill-opacity="1"><g transform="translate(292.012661, 198.524973)"><g><path d="M 6.796875 -6.296875 L 4.078125 0 L 2.640625 0 L -0.078125 -6.296875 L 1.5 -6.296875 L 3.40625 -1.796875 L 5.359375 -6.296875 Z M 6.796875 -6.296875 "/></g></g></g><g fill="#498536" fill-opacity="1"><g transform="translate(300.985698, 198.524973)"><g><path d="M 0.75 -6.296875 L 2.203125 -6.296875 L 2.203125 0 L 0.75 0 Z M 0.75 -6.296875 "/></g></g></g><g fill="#498536" fill-opacity="1"><g transform="translate(306.196719, 198.524973)"><g><path d="M 5.625 -1.171875 L 5.625 0 L 0.75 0 L 0.75 -6.296875 L 5.515625 -6.296875 L 5.515625 -5.125 L 2.203125 -5.125 L 2.203125 -3.765625 L 5.125 -3.765625 L 5.125 -2.625 L 2.203125 -2.625 L 2.203125 -1.171875 Z M 3.171875 1.890625 C 2.992188 1.890625 2.84375 1.832031 2.71875 1.71875 C 2.601562 1.613281 2.546875 1.46875 2.546875 1.28125 C 2.546875 1.101562 2.601562 0.953125 2.71875 0.828125 C 2.84375 0.710938 2.992188 0.65625 3.171875 0.65625 C 3.347656 0.65625 3.492188 0.710938 3.609375 0.828125 C 3.734375 0.953125 3.796875 1.101562 3.796875 1.28125 C 3.796875 1.46875 3.734375 1.613281 3.609375 1.71875 C 3.492188 1.832031 3.347656 1.890625 3.171875 1.890625 Z M 3.90625 -6.8125 L 3.125 -7.5 L 2.34375 -6.8125 L 1.3125 -6.8125 L 2.5 -8.109375 L 3.75 -8.109375 L 4.9375 -6.8125 Z M 3.90625 -6.8125 "/></g></g></g><g fill="#498536" fill-opacity="1"><g transform="translate(314.494761, 198.524973)"><g><path d="M 2.046875 -5.109375 L 0.03125 -5.109375 L 0.03125 -6.296875 L 5.53125 -6.296875 L 5.53125 -5.109375 L 3.515625 -5.109375 L 3.515625 0 L 2.046875 0 Z M 2.046875 -5.109375 "/></g></g></g><g fill="#6ac23f" fill-opacity="1"><g transform="translate(102.951027, 180.750017)"><g><path d="M 2.203125 0 L 2.203125 -2.078125 L 5.921875 -2.078125 L 5.921875 -27.078125 L 2 -27.078125 L 2 -29.15625 L 10.484375 -29.15625 L 20.71875 -8.40625 L 30.953125 -29.15625 L 38.921875 -29.15625 L 38.921875 -27.078125 L 35.046875 -27.078125 L 35.046875 -2.078125 L 38.765625 -2.078125 L 38.765625 0 L 27.359375 0 L 27.359375 -2.078125 L 31.078125 -2.078125 L 31.078125 -24.609375 L 21.078125 -4.28125 L 18.328125 -4.28125 L 8.328125 -24.609375 L 8.328125 -2.078125 L 12.03125 -2.078125 L 12.03125 0 Z M 2.203125 0 "/></g></g></g><g fill="#6ac23f" fill-opacity="1"><g transform="translate(144.144058, 180.750017)"><g><path d="M 8.015625 -10.5625 L 18.71875 -10.5625 L 13.359375 -24.4375 Z M -0.234375 0 L -0.234375 -2.078125 L 2.328125 -2.078125 L 12.71875 -29.15625 L 16 -29.15625 L 26.40625 -2.078125 L 29.28125 -2.078125 L 29.28125 0 L 18.671875 0 L 18.671875 -2.078125 L 21.921875 -2.078125 L 19.46875 -8.484375 L 7.203125 -8.484375 L 4.765625 -2.078125 L 7.96875 -2.078125 L 7.96875 0 Z M 12.71875 -37.09375 L 16.15625 -37.09375 L 20.671875 -31.9375 L 18.40625 -31.9375 L 14.4375 -35.078125 L 10.46875 -31.9375 L 8.203125 -31.9375 Z M 12.71875 -37.09375 "/></g></g></g><g fill="#6ac23f" fill-opacity="1"><g transform="translate(173.267957, 180.750017)"><g><path d="M 7.5625 0 L 7.5625 -2.078125 L 11.296875 -2.078125 L 11.296875 -12.5625 L 2.28125 -27.078125 L -0.453125 -27.078125 L -0.453125 -29.15625 L 10.390625 -29.15625 L 10.390625 -27.078125 L 7 -27.078125 L 14.28125 -15.28125 L 21.5625 -27.078125 L 18.28125 -27.078125 L 18.28125 -29.15625 L 26.765625 -29.15625 L 26.765625 -27.078125 L 24 -27.078125 L 15.234375 -12.9375 L 15.234375 -2.078125 L 18.96875 -2.078125 L 18.96875 0 Z M 7.5625 0 "/></g></g></g><g fill="#6ac23f" fill-opacity="1"><g transform="translate(199.911626, 180.750017)"><g/></g></g><g fill="#6ac23f" fill-opacity="1"><g transform="translate(212.865227, 180.750017)"><g><path d="M 7 -27.078125 L 15.609375 -4.6875 L 24.203125 -27.078125 L 20.921875 -27.078125 L 20.921875 -29.15625 L 29.46875 -29.15625 L 29.46875 -27.078125 L 26.640625 -27.078125 L 16.234375 0 L 12.875 0 L 2.515625 -27.078125 L -0.390625 -27.078125 L -0.390625 -29.15625 L 10.234375 -29.15625 L 10.234375 -27.078125 Z M 7 -27.078125 "/></g></g></g><g fill="#6ac23f" fill-opacity="1"><g transform="translate(241.989122, 180.750017)"><g><path d="M 9.890625 -2.078125 L 13.59375 -2.078125 L 13.59375 0 L 2.203125 0 L 2.203125 -2.078125 L 5.921875 -2.078125 L 5.921875 -27.078125 L 2.203125 -27.078125 L 2.203125 -29.15625 L 13.59375 -29.15625 L 13.59375 -27.078125 L 9.890625 -27.078125 Z M 9.890625 -2.078125 "/></g></g></g><g fill="#6ac23f" fill-opacity="1"><g transform="translate(258.02836, 180.750017)"><g><path d="M 2.203125 0 L 2.203125 -2.078125 L 5.921875 -2.078125 L 5.921875 -27.078125 L 2.203125 -27.078125 L 2.203125 -29.15625 L 25.6875 -29.15625 L 25.6875 -22.671875 L 23.28125 -22.671875 L 23.28125 -26.765625 L 9.890625 -26.765625 L 9.890625 -17 L 19.4375 -17 L 19.4375 -20.640625 L 21.84375 -20.640625 L 21.84375 -10.953125 L 19.4375 -10.953125 L 19.4375 -14.609375 L 9.890625 -14.609375 L 9.890625 -2.40625 L 23.59375 -2.40625 L 23.59375 -6.484375 L 26 -6.484375 L 26 0 Z M 14.609375 3.09375 C 15.234375 3.09375 15.769531 3.316406 16.21875 3.765625 C 16.664062 4.210938 16.890625 4.75 16.890625 5.375 C 16.890625 6.039062 16.675781 6.585938 16.25 7.015625 C 15.820312 7.441406 15.273438 7.65625 14.609375 7.65625 C 13.941406 7.65625 13.394531 7.441406 12.96875 7.015625 C 12.539062 6.585938 12.328125 6.039062 12.328125 5.375 C 12.328125 4.75 12.550781 4.210938 13 3.765625 C 13.445312 3.316406 13.984375 3.09375 14.609375 3.09375 Z M 12.890625 -37.09375 L 16.328125 -37.09375 L 20.84375 -31.9375 L 18.578125 -31.9375 L 14.609375 -35.078125 L 10.640625 -31.9375 L 8.375 -31.9375 Z M 12.890625 -37.09375 "/></g></g></g><g fill="#6ac23f" fill-opacity="1"><g transform="translate(287.464724, 180.750017)"><g><path d="M 7.640625 0 L 7.640625 -2.078125 L 11.375 -2.078125 L 11.375 -26.84375 L 2.796875 -26.84375 L 2.796875 -22.28125 L 0.390625 -22.28125 L 0.390625 -29.15625 L 26.296875 -29.15625 L 26.296875 -22.28125 L 23.890625 -22.28125 L 23.890625 -26.84375 L 15.3125 -26.84375 L 15.3125 -2.078125 L 19.046875 -2.078125 L 19.046875 0 Z M 7.640625 0 "/></g></g></g></svg>